{"title":"Battleship (2012) (iPhone etc)","uid":7502707,"size":399369793,"categoryP":"video","categoryS":"handheld","magnet":"?xt=urn:btih:6c3f010d39eb5ab611fb03a2d4b4473eebb3006c&amp;dn=Battleship+%282012%29+%28iPhone+etc%29&amp;tr=udp%3A%2F%2Ftracker.openbittorrent.com%3A80&amp;tr=udp%3A%2F%2Fopen.demonii.com%3A1337&amp;tr=udp%3A%2F%2Ftracker.coppersurfer.tk%3A6969&amp;tr=udp%3A%2F%2Fexodus.desync.com%3A6969","seeders":0,"leechers":0,"uploader":"pspxxx","files":1,"time":1344071447,"description":"Battleship DVD Rip (2012)\n &lt;a href=&quot;\nhttp://bayimg.com/gaAJdAAeL&quot; rel=&quot;nofollow&quot; target=&quot;_NEW&quot;&gt;\nhttp://bayimg.com/gaAJdAAeL&lt;/a&gt;\n\nFormat                                   : MPEG-4\nCodec ID                                 : M4V \nFile size                                : 381 MiB\nDuration                                 : 2h 5mn\nOverall bit rate mode                    : Variable\nOverall bit rate                         : 423 Kbps\nWriting application                      : Lavf52.32.0\n\nVideo\nID                                       : 1\nFormat                                   : MPEG-4 Visual\nFormat profile                           : Simple@L1\nFormat settings, BVOP                    : No\nFormat settings, QPel                    : No\nFormat settings, GMC                     : No warppoints\nFormat settings, Matrix                  : Default (H.263)\nCodec ID                                 : 20\nDuration                                 : 2h 5mn\nBit rate                                 : 355 Kbps\nWidth                                    : 480 pixels\nHeight                                   : 320 pixels\nDisplay aspect ratio                     : 2.500\nFrame rate mode                          : Constant\nFrame rate                               : 23.976 fps\nColor space                              : YUV\nChroma subsampling                       : 4:2:0\nBit depth                                : 8 bits\nScan type                                : Progressive\nCompression mode                         : Lossy\nBits/(Pixel*Frame)                       : 0.096\nStream size                              : 319 MiB (84%)\nWriting library                          : Lavc52.22.3\n\nAudio\nID                                       : 2\nFormat                                   : AAC\nFormat/Info                              : Advanced Audio Codec\nFormat profile                           : LC\nCodec ID                                 : 40\nDuration                                 : 2h 5mn\nBit rate mode                            : Variable\nBit rate                                 : 64.0 Kbps\nChannel(s)                               : 2 channels\nChannel positions                        : Front: L R\nSampling rate                            : 44.1 KHz\nCompression mode                         : Lossy\nStream size                              : 57.6 MiB (15%)\n\n","torrent":{"xt":"urn:btih:6c3f010d39eb5ab611fb03a2d4b4473eebb3006c","amp;dn":"Battleship+%282012%29+%28iPhone+etc%29","amp;tr":["udp%3A%2F%2Ftracker.openbittorrent.com%3A80","udp%3A%2F%2Fopen.demonii.com%3A1337","udp%3A%2F%2Ftracker.coppersurfer.tk%3A6969","udp%3A%2F%2Fexodus.desync.com%3A6969"],"infoHash":"6c3f010d39eb5ab611fb03a2d4b4473eebb3006c","infoHashBuffer":{"type":"Buffer","data":[108,63,1,13,57,235,90,182,17,251,3,162,212,180,71,62,235,179,0,108]},"announce":[],"urlList":[]}}